<svg width="170" height="36" viewBox="0 0 170 36" fill="none" xmlns="http://www.w3.org/2000/svg">
<path d="M17.8106 12.1202L0 0.360657V35.6394H35.2787V0.360657L17.8106 12.1202ZM51.8334 31.5292L56.5144 7.61049L64.1639 24.9073L72.0987 7.61049L76.323 31.5292H72.8979L70.7287 18.0571L64.1639 32.4997L57.7703 18L55.3727 31.4721H51.8334V31.5292ZM94.0766 26.1632H84.5433L82.0887 31.5863H78.4923L89.5097 7.89592L100.128 31.5863H96.4741L94.0766 26.1632ZM92.7065 22.9664L89.3956 15.3741L85.9134 22.9664H92.7065ZM106.236 18.1713L114.913 9.26596H119.422L109.375 19.3701L119.48 31.5863H114.97L106.978 21.6535L106.293 22.3385V31.5292H102.925V9.26596H106.293V18.1713H106.236ZM134.721 12.4057H125.816V17.7717H134.493V20.9114H125.816V28.3325H134.721V31.4721H122.448V9.20888H134.721V12.4057ZM146.709 22.0531L153.617 31.5292H149.506L143.17 22.3956H142.542V31.5292H139.174V9.26596H143.113C146.081 9.26596 148.193 9.83682 149.506 10.9214C150.934 12.1773 151.676 13.7757 151.676 15.7737C151.676 17.3721 151.219 18.685 150.306 19.8267C149.392 21.0255 148.193 21.7106 146.709 22.0531ZM142.542 19.4842H143.627C146.823 19.4842 148.422 18.2854 148.422 15.8308C148.422 13.5474 146.88 12.4057 143.798 12.4057H142.599V19.4842H142.542ZM169.543 12.5769L166.803 14.1753C166.289 13.319 165.833 12.6911 165.319 12.4627C164.862 12.1773 164.234 12.0061 163.435 12.0061C162.522 12.0061 161.723 12.2915 161.095 12.8053C160.467 13.319 160.181 14.004 160.181 14.7462C160.181 15.8308 160.981 16.6871 162.579 17.3721L164.805 18.2854C166.632 19.0275 167.945 19.8838 168.744 20.9684C169.6 21.996 170 23.3089 170 24.8502C170 26.9053 169.315 28.6179 167.945 29.9308C166.575 31.3009 164.862 31.9288 162.807 31.9288C160.866 31.9288 159.268 31.358 158.012 30.2163C156.756 29.0746 156.014 27.4762 155.672 25.364L159.097 24.6219C159.268 25.9349 159.496 26.8482 159.896 27.362C160.581 28.3325 161.608 28.7891 162.921 28.7891C163.949 28.7891 164.862 28.4466 165.547 27.7616C166.232 27.0766 166.575 26.1632 166.575 25.0786C166.575 24.6219 166.518 24.2223 166.404 23.8798C166.289 23.5373 166.118 23.1948 165.833 22.9093C165.604 22.6239 165.262 22.3385 164.862 22.0531C164.463 21.7676 164.006 21.5393 163.435 21.311L161.266 20.3976C158.24 19.0846 156.699 17.2008 156.699 14.7462C156.699 13.0907 157.327 11.6635 158.64 10.5218C159.896 9.38013 161.494 8.80928 163.435 8.80928C166.061 8.86637 168.116 10.0652 169.543 12.5769Z" fill="black"/>
</svg>
